# xmcd
#
# Track frame offsets: 
#        150
#        5020
#        18380
#        36017
#        52832
#        67815
#
# Disc length: 1233 seconds
#
# Revision: 0
# Processed by: cddbd v1.5.1PL0 Copyright (c) Steve Scherf et al.
# Submitted via: ExactAudioCopy v0.95a5
#
DISCID=3d04cf06
DTITLE=Bengt Olander - Gåshud (Goose Bumps)
DYEAR=1997
DGENRE=Country
TTITLE0=Introduktion (Introduction)
TTITLE1=Mule Skinner Blues
TTITLE2=Cold Cold Heart
TTITLE3=Detroit City
TTITLE4=Okie From Muskogee
TTITLE5=Jersey Girl
EXTD=
EXTT0=
EXTT1=
EXTT2=
EXTT3=
EXTT4=
EXTT5=
PLAYORDER=
